<?xml version="1.0" encoding="UTF-8" standalone="no"?>
<!-- Created with Inkscape (http://www.inkscape.org/) -->

<svg
   width="124.53091mm"
   height="87.532982mm"
   viewBox="0 0 124.53091 87.532982"
   version="1.1"
   id="svg10998"
   inkscape:version="1.1.2 (0a00cf5339, 2022-02-04)"
   sodipodi:docname="linea-fondo.svg"
   xmlns:inkscape="http://www.inkscape.org/namespaces/inkscape"
   xmlns:sodipodi="http://sodipodi.sourceforge.net/DTD/sodipodi-0.dtd"
   xmlns="http://www.w3.org/2000/svg"
   xmlns:svg="http://www.w3.org/2000/svg">
  <sodipodi:namedview
     id="namedview11000"
     pagecolor="#ffffff"
     bordercolor="#000000"
     borderopacity="0.25"
     inkscape:pageshadow="2"
     inkscape:pageopacity="0.0"
     inkscape:pagecheckerboard="0"
     inkscape:document-units="mm"
     showgrid="false"
     fit-margin-top="0"
     fit-margin-left="0"
     fit-margin-right="0"
     fit-margin-bottom="0"
     inkscape:zoom="0.98520767"
     inkscape:cx="233.96083"
     inkscape:cy="277.60645"
     inkscape:window-width="1920"
     inkscape:window-height="1016"
     inkscape:window-x="0"
     inkscape:window-y="0"
     inkscape:window-maximized="1"
     inkscape:current-layer="layer1" />
  <defs
     id="defs10995">
    <clipPath
       clipPathUnits="userSpaceOnUse"
       id="clipPath9297">
      <path
         d="m 495.348,3736.565 h 353.001 v 251.634 H 495.348 Z"
         id="path9295" />
    </clipPath>
    <clipPath
       clipPathUnits="userSpaceOnUse"
       id="clipPath9305">
      <path
         d="M 349.399,3984.69 H 955.327 V 3636.71 H 349.399 Z"
         id="path9303" />
    </clipPath>
  </defs>
  <g
     inkscape:label="Capa 1"
     inkscape:groupmode="layer"
     id="layer1"
     transform="translate(-30.692433,-34.517348)">
    <g
       id="g9291"
       transform="matrix(0.35277777,0,0,-0.35277777,-144.05533,1440.2274)">
      <g
         id="g9293"
         clip-path="url(#clipPath9297)">
        <g
           id="g9299">
          <g
             id="g9301" />
          <g
             id="g9313">
            <g
               clip-path="url(#clipPath9305)"
               opacity="0.149994"
               id="g9311">
              <g
                 transform="translate(955.3271,3636.709)"
                 id="g9309">
                <path
                   d="m 0,0 c -65.59,0 -111.723,14.434 -141.031,44.128 -26.527,26.876 -34.021,60.801 -40.043,88.06 -3.746,16.963 -7.286,32.985 -14.246,41.979 -2.542,3.285 -9.295,12.011 -36.934,12.011 -39.197,0 -66.867,7.178 -87.077,22.589 -19.214,14.653 -27.028,33.329 -33.307,48.335 -5.1,12.191 -8.29,19.325 -14.558,24.209 -8.627,6.722 -24.76,10.128 -47.95,10.128 h -190.782 v 56.542 h 190.782 c 37.097,0 63.374,-7.011 82.698,-22.066 18.263,-14.228 25.862,-32.392 31.969,-46.988 5.27,-12.596 8.584,-19.976 15.431,-25.198 9.579,-7.305 27.341,-11.009 52.792,-11.009 37.264,0 63.973,-11.105 81.652,-33.95 14.718,-19.02 19.812,-42.082 24.739,-64.386 5.142,-23.277 9.999,-45.263 25.072,-60.536 18.137,-18.375 51.107,-27.306 100.792,-27.306 z"
                   style="fill:#a3ffdb;fill-opacity:1;fill-rule:nonzero;stroke:none"
                   id="path9307" />
              </g>
            </g>
          </g>
        </g>
      </g>
    </g>
  </g>
</svg>
