<?xml version="1.0" encoding="utf-8"?>
<!-- Generator: Adobe Illustrator 30.3.0, SVG Export Plug-In . SVG Version: 9.03 Build 0)  -->
<svg version="1.0" id="Capa_1" xmlns="http://www.w3.org/2000/svg" xmlns:xlink="http://www.w3.org/1999/xlink" x="0px" y="0px"
	 viewBox="0 0 407.028 127.918" style="enable-background:new 0 0 407.028 127.918;" xml:space="preserve">
<g>
	<g>
		<path style="fill:#404040;" d="M54.468,85.503c-0.034,4.544-0.822,8.824-2.365,12.842c-1.543,4.018-3.806,7.451-6.789,10.299
			l12.257,11.087l-9.206,8.188l-14.087-13.02c-1.188,0.305-2.399,0.542-3.637,0.712c-1.238,0.169-2.517,0.254-3.84,0.254
			c-4.272,0-8.07-0.822-11.392-2.467c-3.323-1.644-6.128-3.865-8.417-6.662c-2.289-2.797-4.026-6.027-5.213-9.688
			C0.593,93.386,0,89.538,0,85.503V72.687c0-4.781,0.593-9.18,1.78-13.198c1.187-4.018,2.924-7.484,5.213-10.401
			c2.288-2.915,5.093-5.195,8.417-6.84c3.323-1.644,7.12-2.466,11.392-2.466c4.305,0,8.171,0.822,11.596,2.466
			c3.424,1.645,6.323,3.925,8.697,6.84c2.373,2.916,4.196,6.383,5.467,10.401c1.271,4.018,1.907,8.417,1.907,13.198V85.503z
			 M39.974,72.585c0-3.051-0.246-5.856-0.737-8.417c-0.492-2.56-1.264-4.772-2.314-6.637c-1.051-1.864-2.408-3.314-4.068-4.349
			c-1.662-1.034-3.679-1.551-6.052-1.551c-2.34,0-4.297,0.526-5.874,1.577c-1.576,1.051-2.84,2.501-3.789,4.348
			c-0.95,1.848-1.627,4.052-2.034,6.612c-0.407,2.56-0.61,5.365-0.61,8.417v12.918c0,2.306,0.204,4.569,0.61,6.789
			c0.407,2.221,1.084,4.204,2.034,5.951c0.949,1.746,2.213,3.162,3.789,4.246c1.577,1.086,3.534,1.627,5.874,1.627
			c2.373,0,4.391-0.534,6.052-1.602c1.66-1.068,3.017-2.483,4.068-4.246c1.051-1.763,1.822-3.754,2.314-5.976
			c0.491-2.22,0.737-4.483,0.737-6.789V72.585z"/>
		<path style="fill:#404040;" d="M114.176,40.8l0.051,49.077c0,4.137-0.568,7.815-1.704,11.036
			c-1.137,3.221-2.781,5.942-4.933,8.163c-2.154,2.221-4.781,3.908-7.883,5.06c-3.102,1.152-6.637,1.729-10.604,1.729
			c-3.73,0-7.095-0.577-10.095-1.729c-3-1.152-5.569-2.831-7.705-5.035c-2.136-2.203-3.789-4.925-4.959-8.163
			c-1.17-3.237-1.754-6.925-1.754-11.062L64.64,40.8h14.291l0.051,49.077c0.034,4.781,0.907,8.391,2.619,10.833
			c1.712,2.441,4.213,3.662,7.501,3.662c3.492,0,6.162-1.22,8.01-3.662c1.848-2.441,2.789-6.052,2.822-10.833L99.986,40.8H114.176z"
			/>
		<path style="fill:#404040;" d="M130.501,40.8h42.822v11.544h-14.444v51.01h14.444v11.494h-42.822v-11.494h14.088v-51.01h-14.088
			V40.8z"/>
		<path style="fill:#404040;" d="M205.058,87.69v27.158h-14.291V40.8h25.327c4.035,0,7.679,0.585,10.934,1.754
			c3.255,1.17,6.027,2.797,8.315,4.882c2.289,2.085,4.052,4.586,5.289,7.502c1.237,2.916,1.857,6.154,1.857,9.713
			c0,3.323-0.619,6.392-1.857,9.206c-1.238,2.815-3,5.247-5.289,7.298c-2.288,2.052-5.06,3.654-8.315,4.806
			c-3.255,1.153-6.9,1.729-10.934,1.729H205.058z M205.058,76.095h11.036c2.034,0,3.797-0.305,5.289-0.916
			c1.492-0.61,2.738-1.44,3.738-2.492c1-1.051,1.746-2.263,2.238-3.637c0.491-1.373,0.738-2.805,0.738-4.297
			c0-1.729-0.246-3.34-0.738-4.832c-0.491-1.491-1.238-2.797-2.238-3.916c-1-1.119-2.246-2.001-3.738-2.645
			c-1.492-0.644-3.255-0.966-5.289-0.966h-11.036V76.095z"/>
		<path style="fill:#404040;" d="M301.688,40.8l0.051,49.077c0,4.137-0.568,7.815-1.704,11.036
			c-1.137,3.221-2.781,5.942-4.933,8.163c-2.154,2.221-4.781,3.908-7.883,5.06c-3.102,1.152-6.637,1.729-10.604,1.729
			c-3.73,0-7.095-0.577-10.095-1.729s-5.569-2.831-7.705-5.035c-2.136-2.203-3.789-4.925-4.958-8.163
			c-1.17-3.237-1.754-6.925-1.754-11.062l0.051-49.077h14.291l0.051,49.077c0.034,4.781,0.907,8.391,2.619,10.833
			c1.712,2.441,4.213,3.662,7.501,3.662c3.492,0,6.162-1.22,8.01-3.662c1.848-2.441,2.789-6.052,2.822-10.833l0.051-49.077H301.688z
			"/>
	</g>
	<g>
		<path style="fill:#008BFF;" d="M383.944,4.356c-0.136,4.484-0.292,9.565,3.607,13.462c3.721,3.722,9.026,3.845,13.706,3.954
			c1.504,0.035,2.976,0.069,4.348,0.215c-0.383-1.009-0.811-1.996-1.284-2.956c-0.994-0.057-1.999-0.083-2.997-0.106
			c-4.549-0.106-8.845-0.206-11.759-3.12c-3.028-3.028-2.906-7.077-2.775-11.363c0.019-0.632,0.037-1.268,0.045-1.902
			c-0.927-0.39-1.875-0.737-2.841-1.045C384.003,2.409,383.974,3.365,383.944,4.356z"/>
		<path style="fill:#008BFF;" d="M403.825,31.709c-3.05-3.049-7.613-3.155-12.026-3.258c-4.549-0.106-8.848-0.204-11.762-3.12
			c-3.028-3.028-2.906-7.077-2.775-11.363c0.128-4.209,0.262-8.56-2.903-11.725c-1.067-1.066-2.346-1.775-3.739-2.244
			c-3.253,0.275-6.376,1.001-9.306,2.121c4.112-0.228,8.573-0.321,11.032,2.137c2.294,2.294,2.191,5.692,2.071,9.624
			c-0.136,4.484-0.292,9.565,3.607,13.464c3.72,3.722,9.026,3.846,13.708,3.954c4.029,0.093,7.836,0.181,10.08,2.423
			c3.175,3.175,2.475,7.38,1.796,11.446c-0.366,2.198-0.716,4.316-0.358,6.115c1.656-2.867,2.907-5.995,3.68-9.308
			C407.252,38.507,406.911,34.794,403.825,31.709z"/>
		<path style="fill:#008BFF;" d="M396.891,55.163c0.723-4.328,1.621-9.715-2.592-13.928c-3.05-3.049-7.613-3.155-12.026-3.258
			c-4.549-0.106-8.848-0.204-11.762-3.12c-3.028-3.028-2.906-7.077-2.775-11.363c0.128-4.209,0.261-8.56-2.903-11.724
			c-3.52-3.523-9.332-3.189-14.006-2.921c-0.148,0.008-0.297,0.016-0.446,0.025c-1.008,0.924-1.956,1.912-2.848,2.949
			c1.083-0.003,2.239-0.062,3.458-0.131c4.31-0.251,9.212-0.53,11.829,2.091c2.294,2.294,2.191,5.692,2.072,9.624
			c-0.136,4.484-0.292,9.565,3.606,13.464c3.721,3.722,9.026,3.846,13.708,3.954c4.029,0.093,7.836,0.181,10.08,2.423
			c3.175,3.177,2.475,7.381,1.796,11.446c-0.429,2.574-0.838,5.04-0.11,7.01c0.855-0.635,1.677-1.31,2.468-2.02
			C396.342,58.471,396.603,56.891,396.891,55.163z"/>
		<path style="fill:#008BFF;" d="M384.773,50.761c-3.05-3.049-7.613-3.155-12.026-3.257c-4.549-0.106-8.848-0.204-11.762-3.12
			c-3.028-3.028-2.906-7.078-2.775-11.364c0.128-4.208,0.261-8.56-2.903-11.724c-3.066-3.068-7.878-3.212-12.156-3.018
			c-0.497,0.949-0.952,1.924-1.36,2.923c4.232-0.242,8.949-0.444,11.503,2.108c2.294,2.294,2.191,5.692,2.072,9.625
			c-0.136,4.484-0.292,9.565,3.606,13.464c3.721,3.722,9.026,3.846,13.708,3.954c4.029,0.093,7.836,0.181,10.08,2.423
			c3.175,3.177,2.475,7.381,1.796,11.446c-0.144,0.866-0.286,1.719-0.383,2.546c1.036-0.338,2.05-0.722,3.04-1.152
			c0.049-0.303,0.099-0.611,0.152-0.925C388.087,60.361,388.985,54.974,384.773,50.761z"/>
		<path style="fill:#008BFF;" d="M363.22,57.03c-4.549-0.106-8.848-0.204-11.762-3.12c-3.028-3.028-2.906-7.078-2.775-11.364
			c0.128-4.208,0.262-8.56-2.903-11.724c-1.618-1.619-3.722-2.418-5.975-2.788c-0.167,0.926-0.303,1.862-0.394,2.812
			c1.716,0.291,3.243,0.877,4.356,1.989c2.294,2.294,2.191,5.692,2.072,9.625c-0.136,4.484-0.292,9.565,3.606,13.464
			c3.721,3.722,9.026,3.846,13.708,3.954c4.029,0.093,7.836,0.181,10.08,2.423c1.775,1.775,2.338,3.872,2.371,6.087
			c0.957-0.057,1.904-0.153,2.839-0.287c-0.078-2.711-0.832-5.447-3.198-7.813C372.196,57.239,367.633,57.133,363.22,57.03z"/>
	</g>
</g>
</svg>
