<?xml version="1.0" encoding="UTF-8"?>
<svg xmlns="http://www.w3.org/2000/svg" version="1.1" viewBox="0 0 300 200">
  <defs>
    <style>
      .cls-1 {
        fill: #0885e5;
      }

      .cls-2 {
        fill: #ddccc4;
      }

      .cls-3, .cls-4, .cls-5 {
        fill: #fff;
      }

      .cls-6 {
        fill: #d4967c;
      }

      .cls-7 {
        fill: #292c47;
      }

      .cls-8, .cls-9, .cls-4 {
        opacity: .4;
      }

      .cls-10 {
        fill: #1a2e35;
      }

      .cls-9, .cls-11 {
        fill: #1a2e35;
      }

      .cls-12 {
        fill: #414773;
      }

      .cls-13 {
        fill: #0065c0;
      }

      .cls-14 {
        fill: #fd897b;
      }

      .cls-15 {
        fill: #fd6293;
      }

      .cls-16 {
        fill: #4ac8c1;
      }

      .cls-17 {
        fill: #007cff;
      }

      .cls-18 {
        fill: #e8a280;
      }

      .cls-19 {
        opacity: .2;
      }

      .cls-20 {
        fill: #e9a481;
      }

      .cls-21 {
        fill: #007afb;
      }

      .cls-22 {
        fill: #e4e4e4;
      }

      .cls-23 {
        fill: #007a6b;
      }

      .cls-5 {
        stroke: #007cff;
        stroke-miterlimit: 10;
        stroke-width: 1.9px;
      }

      .cls-24 {
        fill: #0bb3a9;
      }
    </style>
  </defs>
  <!-- Generator: Adobe Illustrator 28.7.1, SVG Export Plug-In . SVG Version: 1.2.0 Build 142)  -->
  <g>
    <g id="Capa_1">
      <g>
        <g>
          <path class="cls-24" d="M125.5,74.4c3.5,3.6,6,7.2,5.2,9.5,0,.1-.1.3-.2.4-.8,1.4-2.9,2.2-7.1,2-11.2-.4-14-6.9-18.4-12.7-4.3-5.8-10.7-2.2-10.9-2.1,13.9-11.2,25.4-3.2,31.3,2.9Z"/>
          <path class="cls-16" d="M130.9,83.6c0,.3,0,.5,0,.5,0-.1-.2-.3-.3-.4-3.7-6.2-5.7-6.3-13-10.3-7.5-4.1-6.4-10.8-6.4-10.8,19.8-1.2,19.9,17.5,19.7,21Z"/>
        </g>
        <path class="cls-17" d="M216,45.5c.7-.4,1.4-.7,2.2-.9l.4-2.1h3.6c0,0,.5,2.1.5,2.1.8.2,1.5.5,2.2.9l1.8-1.2,2.6,2.5-1.1,1.9c.4.7.7,1.4.9,2.2l2.1.4v3.6c0,0-2.1.5-2.1.5-.2.8-.5,1.5-.9,2.2l1.2,1.8-2.5,2.6-1.9-1.1c-.7.4-1.4.7-2.2.9l-.4,2.1h-3.6c0,0-.5-2.1-.5-2.1-.8-.2-1.5-.5-2.2-.9l-1.8,1.2-2.6-2.5,1.1-1.9c-.4-.7-.7-1.4-.9-2.2l-2.1-.4v-3.6c0,0,2.1-.5,2.1-.5.2-.8.5-1.5.9-2.2l-1.2-1.8,2.5-2.6,1.9,1.1h0ZM217.9,50.4c-1.5,1.5-1.4,4,0,5.5,1.5,1.5,4,1.4,5.5,0,1.5-1.5,1.4-4,0-5.5-1.5-1.5-4-1.4-5.5,0Z"/>
        <g>
          <path class="cls-17" d="M190.2,36c.5-.3,1-.5,1.6-.7l.3-1.5h2.6s.4,1.5.4,1.5c.5.1,1.1.3,1.6.6l1.3-.9,1.9,1.8-.8,1.4c.3.5.5,1,.7,1.6l1.5.3v2.6s-1.5.4-1.5.4c-.1.5-.3,1.1-.6,1.6l.9,1.3-1.8,1.9-1.4-.8c-.5.3-1,.5-1.6.7l-.3,1.5h-2.6s-.4-1.5-.4-1.5c-.5-.1-1.1-.3-1.6-.6l-1.3.9-1.9-1.8.8-1.4c-.3-.5-.5-1-.7-1.6l-1.5-.3v-2.6s1.5-.4,1.5-.4c.1-.5.3-1.1.6-1.6l-.9-1.3,1.8-1.9,1.4.8h0ZM191.6,39.5c-1.1,1.1-1,2.9,0,4,1.1,1.1,2.9,1,4,0,1.1-1.1,1-2.9,0-4-1.1-1.1-2.9-1-4,0Z"/>
          <path class="cls-17" d="M191.6,39.5s.1-.2.5-.5c.4-.2,1-.5,1.8-.4.4,0,.8.2,1.2.4.4.3.8.6,1,1.1.1.2.2.5.3.8,0,.3,0,.6,0,.9,0,.6-.3,1.2-.8,1.6-.4.4-1,.7-1.6.8-.3,0-.6,0-.9,0-.3,0-.6-.1-.8-.2-.5-.2-.9-.6-1.2-1-.3-.4-.4-.8-.5-1.2-.1-.8.1-1.5.4-1.8.2-.4.4-.5.4-.5,0,0-.2.2-.4.6-.2.4-.4,1-.3,1.8,0,.4.2.8.5,1.2.3.4.6.7,1.1.9.2.1.5.2.8.2.3,0,.5,0,.8,0,.6,0,1.1-.4,1.5-.8.4-.4.7-1,.7-1.5,0-.3,0-.6,0-.8,0-.3-.1-.5-.2-.7-.2-.5-.6-.8-.9-1.1-.4-.3-.8-.4-1.2-.4-.8,0-1.4.1-1.8.4-.4.2-.5.4-.6.4Z"/>
          <path class="cls-17" d="M190.2,36s0,0,0,0c0,0-.1,0-.3-.1-.2-.1-.6-.3-1-.6h0c-.5.5-1.1,1.1-1.8,1.9h0c.3.3.6.8.9,1.3h0s0,0,0,0c-.3.5-.5,1-.6,1.6h0s0,0,0,0c-.5.1-1,.2-1.5.4h0c0,.8,0,1.6,0,2.6h0c.5,0,1,.1,1.5.3h0s0,0,0,0c.1.5.4,1,.7,1.5h0s0,0,0,0c-.3.4-.5.9-.8,1.4h0c.6.5,1.2,1.1,1.9,1.7h0c.4-.3.9-.6,1.3-.9h0s0,0,0,0c.5.3,1,.5,1.6.6h0s0,0,0,0c.1.5.2,1,.4,1.5h0c.8,0,1.7,0,2.6-.1h0c.1-.4.2-1,.3-1.5h0s0,0,0,0c.5-.1,1-.4,1.5-.7h0s0,0,0,0h0c.5.3.9.6,1.4.8h0c.6-.6,1.2-1.2,1.8-1.9h0c-.3-.3-.6-.8-.9-1.2h0s0,0,0,0c.3-.5.5-1,.6-1.6h0s0,0,0,0c.5-.1,1-.3,1.5-.4h0c0-.8,0-1.7,0-2.5h0c-.5,0-1-.1-1.5-.3h0s0,0,0,0c-.2-.6-.4-1.1-.7-1.5h0s0,0,0,0c.3-.5.6-.9.8-1.3h0c-.7-.6-1.3-1.2-1.9-1.7h0c-.5.3-.9.6-1.3.9h0s0,0,0,0c-.5-.3-1.1-.5-1.6-.6h0s0,0,0,0c-.1-.6-.3-1.1-.4-1.5h0c-1,0-1.9,0-2.6,0h0c-.1.6-.2,1.1-.3,1.5h0s0,0,0,0c-.6.2-.9.3-1.2.5-.1,0-.2.1-.3.1,0,0,0,0,0,0,0,0,0,0,0,0,0,0,.2,0,.3-.2.3-.1.6-.3,1.2-.5h0c0-.4.2-.9.3-1.5h0s0,0,0,0c.7,0,1.6,0,2.6,0h0s0,0,0,0c.1.5.2,1,.4,1.5h0c.5,0,1.1.3,1.6.6h0c.4-.3.9-.6,1.3-.9h0s0,0,0,0c.6.6,1.2,1.2,1.9,1.8h0s0,0,0,0c-.3.4-.5.9-.8,1.4h0c.3.4.5.9.7,1.5h0c.5,0,1,.2,1.5.3h0s0,0,0,0c0,.9,0,1.7,0,2.6h0c0,0,0,0,0,0-.5.1-1,.2-1.5.4h0c-.1.5-.3,1-.6,1.5h0c.3.4.6.8.9,1.2h0c0,0,0,0,0,0-.6.6-1.2,1.2-1.8,1.9h0s0,0,0,0c-.4-.3-.9-.5-1.4-.8h0s0,0,0,0c-.5.3-1.1.5-1.6.7h0c-.1.5-.2,1-.3,1.5h0c0,0,0,0,0,0-.9,0-1.8,0-2.6,0h0s0,0,0,0c-.1-.5-.3-1.1-.4-1.5h0c-.6,0-1.1-.3-1.6-.6h0c-.5.3-.9.6-1.3.9h0s0,0,0,0c-.7-.6-1.3-1.2-1.9-1.8h0s0,0,0,0c.3-.5.6-.9.8-1.3h0c-.3-.4-.5-1-.7-1.5h0c-.5,0-1.1-.2-1.5-.3h0s0,0,0,0c0-.9,0-1.8,0-2.6h0s0,0,0,0c.5-.1,1.1-.3,1.5-.4h0c.1-.6.4-1.1.6-1.6h0c-.3-.4-.6-.9-.9-1.3h0s0,0,0,0c.7-.8,1.4-1.4,1.8-1.9h0s0,0,0,0c.4.3.8.5,1,.6.1,0,.2.1.3.2,0,0,0,0,0,0Z"/>
        </g>
        <g>
          <path class="cls-17" d="M60.4,61.3c.4-.2.8-.4,1.3-.6l.3-1.3h2.2s.3,1.2.3,1.2c.5.1.9.3,1.3.5l1.1-.7,1.6,1.5-.7,1.1c.2.4.4.8.6,1.3l1.3.3v2.2s-1.2.3-1.2.3c-.1.5-.3.9-.5,1.3l.7,1.1-1.5,1.6-1.1-.7c-.4.2-.8.4-1.3.6l-.3,1.3h-2.2s-.3-1.2-.3-1.2c-.5-.1-.9-.3-1.3-.5l-1.1.7-1.6-1.5.7-1.1c-.2-.4-.4-.8-.6-1.3l-1.3-.3v-2.2s1.2-.3,1.2-.3c.1-.5.3-.9.5-1.3l-.7-1.1,1.5-1.6,1.1.7h0ZM61.6,64.1c-.9.9-.9,2.4,0,3.3.9.9,2.4.9,3.3,0,.9-.9.9-2.4,0-3.3-.9-.9-2.4-.9-3.3,0Z"/>
          <path class="cls-17" d="M61.6,64.1s.1-.2.4-.4c.3-.2.8-.4,1.5-.4.3,0,.7.1,1,.4.3.2.6.5.8.9.1.2.2.4.2.7,0,.2,0,.5,0,.7,0,.5-.3,1-.6,1.3-.4.4-.8.6-1.3.7-.2,0-.5,0-.7,0-.2,0-.5,0-.7-.2-.4-.2-.7-.5-1-.8-.2-.3-.4-.7-.4-1,0-.7.1-1.2.3-1.5.2-.3.4-.4.4-.4,0,0-.1.2-.3.5-.2.3-.4.8-.3,1.5,0,.3.2.7.4,1,.2.3.5.6.9.8.2,0,.4.1.6.2.2,0,.5,0,.7,0,.5,0,.9-.3,1.2-.7.3-.4.6-.8.6-1.3,0-.2,0-.5,0-.7,0-.2-.1-.4-.2-.6-.2-.4-.5-.7-.8-.9-.3-.2-.7-.3-1-.4-.6,0-1.2.1-1.5.3-.3.2-.4.3-.5.3Z"/>
          <path class="cls-17" d="M60.4,61.3s0,0,0,0c0,0-.1,0-.2-.1-.2-.1-.5-.3-.8-.5h0c-.4.4-.9.9-1.5,1.6h0c.2.3.5.7.7,1.1h0s0,0,0,0c-.2.4-.4.8-.5,1.3h0s0,0,0,0c-.4,0-.8.2-1.3.3h0c0,.6,0,1.4,0,2.1h0c.4,0,.8.1,1.3.2h0s0,0,0,0c.1.4.3.9.6,1.3h0s0,0,0,0c-.2.3-.4.7-.7,1.1h0c.5.4,1,.9,1.6,1.4h0c.3-.2.7-.5,1.1-.7h0s0,0,0,0c.4.2.8.4,1.3.5h0s0,0,0,0c0,.4.2.8.3,1.3h0c.7,0,1.4,0,2.2,0h0c0-.4.2-.8.3-1.2h0s0,0,0,0c.4-.1.9-.3,1.3-.6h0s0,0,0,0h0c.4.2.8.5,1.1.7h0c.5-.5,1-1,1.5-1.5h0c-.2-.3-.5-.7-.7-1h0s0,0,0,0c.2-.4.4-.9.5-1.3h0s0,0,0,0c.4-.1.9-.2,1.3-.3h0c0-.7,0-1.4,0-2.1h0c-.4,0-.9-.1-1.3-.2h0s0,0,0,0c-.1-.5-.3-.9-.6-1.3h0s0,0,0,0c.2-.4.5-.8.7-1.1h0c-.5-.5-1.1-1-1.6-1.4h0c-.4.3-.7.5-1.1.7h0s0,0,0,0c-.4-.2-.9-.4-1.3-.5h0s0,0,0,0c-.1-.5-.2-.9-.3-1.3h0c-.8,0-1.6,0-2.2,0h0c-.1.5-.2.9-.3,1.3h0s0,0,0,0c-.5.1-.8.3-1,.4-.1,0-.2,0-.2.1,0,0,0,0,0,0,0,0,0,0,0,0,0,0,.1,0,.2-.1.2-.1.5-.3,1-.4h0c0-.3.2-.8.3-1.3h0s0,0,0,0c.6,0,1.3,0,2.2,0h0s0,0,0,0c0,.4.2.8.3,1.3h0c.4,0,.9.2,1.3.5h0c.3-.2.7-.5,1.1-.7h0s0,0,0,0c.5.5,1,1,1.6,1.5h0s0,0,0,0c-.2.4-.4.7-.7,1.1h0c.2.3.4.8.6,1.3h0c.4,0,.8.1,1.3.2h0s0,0,0,0c0,.7,0,1.4,0,2.2h0c0,0,0,0,0,0-.4.1-.8.2-1.3.3h0c-.1.4-.3.9-.5,1.3h0c.2.3.5.7.7,1h0s0,0,0,0c-.5.5-1,1-1.5,1.6h0s0,0,0,0c-.4-.2-.7-.5-1.1-.7h0s0,0,0,0c-.4.3-.9.4-1.3.6h0c0,.4-.2.8-.3,1.2h0c0,0,0,0,0,0-.7,0-1.5,0-2.2,0h0s0,0,0,0c-.1-.4-.2-.9-.3-1.3h0c-.5,0-.9-.3-1.3-.5h0c-.4.2-.8.5-1.1.7h0s0,0,0,0c-.5-.5-1.1-1-1.6-1.5h0s0,0,0,0c.2-.4.5-.8.7-1.1h0c-.3-.4-.4-.8-.6-1.3h0c-.4,0-.9-.1-1.3-.2h0s0,0,0,0c0-.8,0-1.5,0-2.2h0s0,0,0,0c.4-.1.9-.2,1.3-.3h0c.1-.5.3-.9.5-1.3h0c-.3-.4-.5-.7-.7-1.1h0s0,0,0,0c.6-.6,1.1-1.2,1.5-1.6h0s0,0,0,0c.4.2.6.4.8.5,0,0,.2.1.2.1,0,0,0,0,0,0Z"/>
        </g>
        <g>
          <path class="cls-17" d="M81,63.8h0s-.8-3.4-.8-3.4c-1.2-.3-2.4-.8-3.5-1.4l-3,1.9h0s-4.2-4.1-4.2-4.1h0s1.8-3,1.8-3c-.7-1.1-1.2-2.3-1.5-3.5l-3.5-.7h0s-.1-5.9-.1-5.9h0s3.4-.8,3.4-.8c.3-1.2.8-2.4,1.4-3.5l-1.9-3h0s4.1-4.2,4.1-4.2h0s3,1.8,3,1.8c1.1-.7,2.3-1.2,3.5-1.5l.7-3.5h0s5.8-.1,5.8-.1h0s.8,3.4.8,3.4c1.2.3,2.4.8,3.5,1.4l3-1.9h0s4.2,4.1,4.2,4.1h0s-1.8,3-1.8,3c.7,1.1,1.2,2.3,1.5,3.5l3.5.7h0s.1,5.9.1,5.9h0s-3.4.8-3.4.8c-.3,1.2-.8,2.4-1.4,3.5l1.9,3h0s-4.1,4.2-4.1,4.2h0s-3-1.8-3-1.8c-1.1.7-2.3,1.2-3.5,1.5l-.7,3.5h0s-5.8.1-5.8.1ZM76.7,58.9h0c1.1.6,2.3,1.1,3.5,1.4h0s0,0,0,0l.8,3.4h5.8c0-.1.7-3.6.7-3.6h0c1.2-.3,2.4-.9,3.5-1.5h0s0,0,0,0l3,1.8,4-4.2-1.9-3h0c.6-1.1,1.1-2.3,1.4-3.5h0s0,0,0,0l3.4-.8v-5.8c-.1,0-3.6-.7-3.6-.7h0c-.3-1.2-.9-2.4-1.5-3.5h0s0,0,0,0l1.8-3-4.2-4-3,1.9h0c-1.1-.6-2.3-1.1-3.5-1.4h0s0,0,0,0l-.8-3.4h-5.8c0,.1-.7,3.6-.7,3.6h0c-1.2.4-2.4.9-3.5,1.5h0s0,0,0,0l-3-1.8-4,4.2,1.9,3h0c-.6,1.1-1.1,2.3-1.4,3.5h0s0,0,0,0l-3.4.8v5.8c.1,0,3.6.7,3.6.7h0c.3,1.2.9,2.4,1.5,3.5h0s0,0,0,0l-1.8,3,4.2,4,3-1.9ZM83.9,52.5c-1.6,0-3.2-.6-4.4-1.8-1.2-1.2-1.9-2.7-1.9-4.4,0-1.7.6-3.3,1.8-4.5,1.2-1.2,2.7-1.9,4.4-1.9,0,0,0,0,.1,0,1.6,0,3.2.6,4.4,1.8,1.2,1.2,1.9,2.7,1.9,4.4,0,1.7-.6,3.3-1.8,4.5-1.2,1.2-2.7,1.9-4.4,1.9,0,0,0,0-.1,0ZM79.3,41.8h0c-1.2,1.2-1.8,2.8-1.8,4.5,0,1.7.7,3.2,1.9,4.4,1.2,1.1,2.7,1.8,4.3,1.8s0,0,.1,0c1.7,0,3.2-.7,4.4-1.9,1.2-1.2,1.8-2.8,1.8-4.5,0-1.7-.7-3.2-1.9-4.4-1.2-1.1-2.7-1.8-4.3-1.8s0,0-.1,0c-1.7,0-3.2.7-4.4,1.9h0Z"/>
          <path class="cls-17" d="M79.3,41.8s.3-.5,1.2-1c.8-.5,2.3-1.2,4.1-1,.9.1,1.9.4,2.8,1,.9.6,1.7,1.4,2.2,2.5.3.5.5,1.1.6,1.8.1.6.1,1.3,0,1.9-.2,1.3-.8,2.6-1.7,3.6-1,1-2.2,1.7-3.6,1.9-.6.1-1.3.1-1.9,0-.6,0-1.2-.3-1.8-.5-1.1-.5-2-1.3-2.6-2.2-.6-.9-1-1.8-1.1-2.7-.3-1.8.3-3.3.8-4.1.5-.9,1-1.2,1-1.2,0,0-.4.4-.9,1.3-.5.8-1,2.3-.7,4,.1.9.5,1.8,1.1,2.6.6.8,1.4,1.6,2.5,2,.5.2,1.1.4,1.7.5.6,0,1.2,0,1.8,0,1.2-.2,2.4-.8,3.4-1.8.9-1,1.5-2.2,1.6-3.4,0-.6,0-1.2,0-1.8,0-.6-.3-1.2-.5-1.7-.5-1-1.3-1.9-2.1-2.4-.8-.6-1.8-.9-2.6-1-1.7-.2-3.2.3-4,.8-.8.5-1.2.9-1.2.9Z"/>
          <path class="cls-17" d="M76.2,34s0,0-.2-.1c-.1,0-.3-.2-.6-.3-.5-.3-1.3-.8-2.3-1.3h0c-1,1.1-2.4,2.5-4,4.2h0c.6.8,1.2,1.8,1.9,2.8h0c0,0,0,.1,0,.1-.6,1-1.1,2.2-1.4,3.5h0c0,0,0,0,0,0-1.1.3-2.2.6-3.4.9h0c0,1.7,0,3.7.1,5.7h-.1c1.1,0,2.2.3,3.5.6h0s0,.1,0,.1c.3,1.1.8,2.3,1.5,3.5h0c0,0,0,.2,0,.2-.6.9-1.2,2-1.8,3v-.2c1.3,1.3,2.7,2.6,4.2,4.1h-.2c.9-.6,1.9-1.3,3-2h0c0,0,0,0,0,0,1,.6,2.2,1.1,3.5,1.4h.1s0,.1,0,.1c.3,1.1.6,2.2.8,3.4h-.2c1.8-.2,3.8-.2,5.8-.2h-.2c.2-.9.5-2.1.7-3.3h0c0-.1.1-.1.1-.1,1.2-.3,2.3-.8,3.4-1.5h0s0,0,0,0h0c1,.7,2,1.3,3,1.9h-.2c1.4-1.4,2.7-2.8,4.1-4.2v.2c-.7-1-1.3-2-2-3h0c0,0,0-.2,0-.2.6-1.1,1.1-2.3,1.4-3.5h0c0-.1.1-.1.1-.1,1.2-.3,2.3-.6,3.4-.8v.2c-.2-2-.2-3.9-.2-5.8v.2c-1-.2-2.2-.5-3.3-.7h0s0-.1,0-.1c-.3-1.2-.9-2.4-1.5-3.5h0c0,0,0-.2,0-.2.6-1,1.2-2,1.8-3v.2c-1.5-1.4-2.8-2.8-4.2-4.1h.2c-1,.7-2,1.3-3,1.9h0s0,0,0,0c-1.2-.7-2.4-1.1-3.5-1.4h0s0,0,0,0c-.3-1.2-.6-2.4-.8-3.4h.1c-2.3.1-4.2.1-5.8.2h0c-.3,1.3-.5,2.4-.7,3.4h0s0,0,0,0c-1.2.3-2.1.7-2.7,1-.3.1-.5.2-.6.3-.1,0-.2.1-.2.1,0,0,0,0,.2-.1.1,0,.3-.2.6-.4.6-.3,1.4-.7,2.7-1.1h0c.2-.9.4-2,.7-3.4h0c0,0,0,0,0,0,1.7,0,3.6,0,5.8-.1h0s0,0,0,0c.3,1.1.5,2.2.9,3.4h0c1.2.2,2.4.6,3.6,1.3h-.1c.9-.6,1.9-1.3,2.9-1.9h0c0,0,0,0,0,0,1.3,1.3,2.7,2.6,4.2,4h0c0,0,0,.2,0,.2-.6,1-1.2,2-1.8,3v-.2c.7,1.1,1.2,2.3,1.5,3.5h-.1c1.1.1,2.3.4,3.5.6h.1s0,.2,0,.2c0,1.9,0,3.8.1,5.8h0c0,.1-.1.2-.1.2-1.1.3-2.3.6-3.4.8h.1c-.3,1.1-.8,2.3-1.4,3.5v-.2c.6,1,1.3,2,1.9,3h0c0,.1,0,.2,0,.2-1.3,1.4-2.7,2.8-4.1,4.2h0c0,.1-.1,0-.1,0-1-.6-2-1.2-3-1.8h.2s0,0,0,0c-1.1.7-2.4,1.2-3.5,1.5h.1c-.2,1.1-.5,2.2-.7,3.3h0c0,.1-.1.1-.1.1-2,0-4,0-5.8.1h-.1s0-.1,0-.1c-.3-1.2-.6-2.4-.8-3.4h.1c-1.3-.2-2.5-.7-3.6-1.3h.2c-1,.7-2,1.3-3,1.9h-.1c0,0,0,0,0,0-1.5-1.4-2.9-2.8-4.2-4.1h0c0,0,0-.2,0-.2.6-1,1.3-2.1,1.8-3v.2c-.7-1.2-1.2-2.4-1.5-3.5h.1c-1.2-.1-2.4-.4-3.5-.6h-.1s0-.1,0-.1c0-2,0-4,0-5.8h0c0-.1,0-.1,0-.1,1.2-.3,2.4-.6,3.4-.8h0c.3-1.2.8-2.4,1.4-3.5h0c-.7-1-1.3-2-1.9-2.9h0c0,0,0-.1,0-.1,1.7-1.7,3-3.1,4.1-4.2h0s0,0,0,0c1,.6,1.7,1.1,2.2,1.4.2.2.4.3.6.4.1,0,.2.1.2.1Z"/>
        </g>
        <g>
          <rect class="cls-5" x="126.9" y="37.6" width="49.7" height="85.3" rx="5.8" ry="5.8"/>
          <g>
            <rect class="cls-22" x="132.6" y="42.2" width="38.5" height="17.9" rx="5.3" ry="5.3"/>
            <rect class="cls-22" x="132.6" y="63.1" width="22.3" height="3.3" rx="1.7" ry="1.7"/>
            <rect class="cls-22" x="132.6" y="68.8" width="11.4" height="11.4" rx="5.7" ry="5.7"/>
            <rect class="cls-22" x="146.2" y="68.8" width="11.4" height="11.4" rx="5.7" ry="5.7"/>
            <rect class="cls-22" x="159.7" y="68.8" width="11.4" height="11.4" rx="5.7" ry="5.7"/>
          </g>
        </g>
        <g>
          <path class="cls-24" d="M241.4,90.8c-1.9-.9-3.7,5-3.7,5-3.2,4.2-7.6-1.4-7.1,4.9.8,10.9-12.6,3.4-6.4,14.8,6.1,11.4-5.4,6.4-1.6,15.6,3.8,9.2-1.1,20.2,4.6,15.7,0,0,5.1-11.1,10.3-14.5,5.2-3.4-3.1-7.5-1.5-12.2,2.4-6.8,8.1-6.5,4-13.8-4.1-7.3,7.8-12.5,1.5-15.5Z"/>
          <path class="cls-3" d="M225.4,142.7c2.5-1.8,5.4-14,5.6-21.2,0-3.7,1.2-5.3,2.2-6.6.9-1.3,1.7-2.4,1.3-5-.9-5,1.5-7.1,1.5-7.1l-.3-.3c-.1,0-2.5,2.3-1.6,7.5.4,2.4-.3,3.4-1.2,4.7-1,1.3-2.1,3-2.2,6.9-.2,7.8-3.2,19.3-5.4,20.9l.2.3Z"/>
          <path class="cls-23" d="M220.1,139.1c-.2-.5-.5-1.1-.8-1.7-1.4-3-2.7-3.5-4.8-4.3-.5-.2-1.1-.4-1.7-.7-3-1.3-2.4-3.3-1.9-5.1,0-.2.1-.5.2-.7.3-1-.2-1.5-1-2.3-.6-.6-1.3-1.3-1.8-2.4-.6-1.2-.3-1.9,0-2.3.8-.7,2.5-.6,4.2.3h0c.5.3.9.7,1.4,1.2,1.1,1.1,2.4,2.5,5.7,2.5,1.9,0,2.9.3,3.5.9.6.7.5,1.7.3,3.1,0,.5-.1,1-.2,1.6-.2,3.6,1.9,6.2,1.9,6.2,1.3,1.5,2.8,4.6,2.1,6.5-.3.8-.9,1.3-1.9,1.5-.4,0-.7.1-1.1.1-2.3,0-3.2-1.9-4.3-4.5ZM212.4,120.2c-1.5-.8-3.1-1-3.7-.4-.5.4-.3,1.2,0,1.8.5,1.1,1.2,1.7,1.7,2.3.8.8,1.4,1.5,1.1,2.7,0,.2-.1.5-.2.7-.5,1.7-1,3.4,1.7,4.6.6.3,1.2.5,1.7.7,2.1.8,3.5,1.4,5,4.5.3.6.5,1.1.8,1.7,1.3,2.9,2.1,4.7,4.9,4.1.8-.2,1.3-.6,1.6-1.2.6-1.7-.8-4.7-2.1-6.1,0-.1-2.2-2.7-2-6.5,0-.6.1-1.2.2-1.7.1-1.3.3-2.3-.2-2.8-.4-.5-1.4-.7-3.2-.7-3.5,0-4.9-1.5-6-2.6-.4-.5-.8-.9-1.3-1.1h0Z"/>
          <path class="cls-23" d="M225.4,145.9h.4c0-.4-.5-9.5-4.2-12.2-4-2.9-5.3-6.1-5.9-8.2-.7-2.5-4.3-3.2-4.5-3.2v.4s3.4.6,4.1,2.9c.6,2.2,1.9,5.4,6,8.4,3.5,2.6,4,11.8,4,11.9Z"/>
          <path class="cls-16" d="M217.1,100c2.6-.9,2.1,4.1,3.2,7.8,1.1,3.7,12.2,1.6,7.6,10.9-4.7,9.3,5.9,3.1,2.7,11.2-3.2,8.1-.3,16.8-3.7,14.6-3.4-2.2-1.9-12.4-5.5-13.6-3.6-1.2-4.2-2.6-.6-5.9,3.5-3.3-9.3-6.6-6.1-13.2,3.2-6.7-.5-10.7,2.5-11.7Z"/>
          <path class="cls-3" d="M225.2,144.1c.3-1.4,3.1-13.6.5-15.1-2.3-1.3-2.2-6.4-1.9-11.1.3-4.2-5.1-6.2-5.3-6.3v.4c0,0,5.2,2,4.9,5.9-.4,4.9-.4,10.1,2.1,11.5,2,1.1.2,10.9-.7,14.6h.4Z"/>
          <polygon class="cls-1" points="235 139.8 231.3 153.9 223 153.9 219.3 139.8 235 139.8"/>
          <path class="cls-13" d="M235,139.8s-8.2,1.5-8.2,14.1h-3.8l-3.7-14.1h15.7Z"/>
        </g>
        <g id="Character">
          <rect class="cls-22" x="106.8" y="92.5" width="31.5" height="18.4" rx="5.3" ry="5.3"/>
          <path class="cls-14" d="M97.1,160.3l-.3,7s2.6.8,2.8-.3c.2-.7.7-2.9,1.1-4.7.2-.7,0-1.3-.3-1.6-.6-.4-1.5-.4-3.3-.4Z"/>
          <path class="cls-14" d="M81,159.9l-2.7,5.3s1.5,1.9,2.2,1.2c.9-1.1,3.7-4.5,3.7-4.5,0,0,1,.1-3.2-2Z"/>
          <polygon class="cls-19" points="79.8 162.4 82.7 163.7 83.9 162.2 80.5 161 79.8 162.4"/>
          <polygon class="cls-19" points="97 162.9 96.9 164.5 100.2 164.5 100.6 162.9 97 162.9"/>
          <g>
            <path class="cls-14" d="M79.9,119.1l1.3,1.5,1.5-1.1s-.5-2.2-.7-2.1c-.2.2-2.1,1.4-2.1,1.4v.3Z"/>
            <path class="cls-19" d="M79.9,119.1l1.3,1.5,1.5-1.1s-.5-2.2-.7-2.1c-.2.2-2.1,1.4-2.1,1.4v.3Z"/>
          </g>
          <g>
            <path class="cls-14" d="M81.1,99.9l-5.6,5.1c-.7.8-.9,2-.3,2.9,1.4,2.6,4.7,7.8,4.7,7.8l1.6-1.2s-2-5.8-2.8-7c0,0,0-.2,0-.2l4.8-3.9-2.4-3.4Z"/>
            <g class="cls-19">
              <path d="M81.1,99.9l-5.6,5.1c-.7.8-.9,2-.3,2.9,1.4,2.6,4.7,7.8,4.7,7.8l1.6-1.2s-2-5.8-2.8-7c0,0,0-.2,0-.2l4.8-3.9-2.4-3.4Z"/>
            </g>
            <path class="cls-14" d="M79.9,115.7v3.1l2.3-1.6s.2-2.6-.7-2.7l-1.6,1.2Z"/>
            <path class="cls-19" d="M79.9,115.7v3.1l2.3-1.6s.2-2.6-.7-2.7l-1.6,1.2Z"/>
          </g>
          <g>
            <path class="cls-17" d="M92.9,141.1c0,1.4-.2,2.8-.5,4.1-1.6,6.9-8.1,16.9-8.1,16.9l-3.8-1.4s5.3-14.4,6-18c.5-3-4.1-13.9-5.4-18.4-1-3.2.4-6.2.4-6.2,0,0,3.5.5,7.6.7l1.6,7.5.7,3.5s.8,2.5,1.2,5.9c0,0,0,.2,0,.3,0,.2,0,.4,0,.7.2,1.4.3,3,.2,4.6Z"/>
            <path class="cls-4" d="M92.9,141.1c0,1.4-.2,2.8-.5,4.1-1.6,6.9-8.1,16.9-8.1,16.9l-3.8-1.4s5.3-14.4,6-18c.5-3-4.1-13.9-5.4-18.4-1-3.2.4-6.2.4-6.2,0,0,3.5.5,7.6.7l1.6,7.5.7,3.5s.8,2.5,1.2,5.9c0,0,0,.2,0,.3,0,.2,0,.4,0,.7.2,1.4.3,3,.2,4.6Z"/>
          </g>
          <path class="cls-9" d="M92.9,141.1c-.5-1.8-2.7-7.3-5.6-12.7-2.9-5.5.3-6.8.3-6.8,1.2.4,2.2,2.3,3,4.6.9,2.8,1.6,6.4,2,9.3,0,0,0,.2,0,.3,0,.2,0,.4,0,.7.2,1.4.3,3,.2,4.6Z"/>
          <g>
            <path class="cls-17" d="M95.6,119.7l-9.8-.7s-.7,2.3-.7,3.9c0,6,4.2,5.7,5.5,8.7,2.9,6.6,5.5,10.7,5.8,12.6.3,1.5.3,19.7.3,19.7h3.8s3.4-14.3,2.7-20.1c-.6-5.8-7.7-24.1-7.7-24.1Z"/>
            <g class="cls-8">
              <path class="cls-3" d="M95.6,119.7l-9.8-.7s-.7,2.3-.7,3.9c0,6,4.2,5.7,5.5,8.7,2.9,6.6,5.5,10.7,5.8,12.6.3,1.5.3,19.7.3,19.7h3.8s3.4-14.3,2.7-20.1c-.6-5.8-7.7-24.1-7.7-24.1Z"/>
            </g>
          </g>
          <path id="_x3C_Path_x3E_" class="cls-14" d="M109.8,102.7l1.8-1-.3,2.6s-1.5.9-2.4,0l.9-1.6Z"/>
          <path id="_x3C_Path_x3E_-2" data-name="_x3C_Path_x3E_" class="cls-14" d="M113.7,102.8v.8c-.2.3-.4.5-.7.5l-1.7.2.3-2.6,1.6.3c.3,0,.5.4.5.7Z"/>
          <path class="cls-14" d="M95.9,102.6s1.5,7.5,4.9,8.7c3.1,1.1,9.3-6.6,9.3-6.6l-.2-2-7.8,5-3.1-7.9s-1.4,1.1-3.1,2.8Z"/>
          <g>
            <path class="cls-17" d="M81.6,166.9c-.2-.2-.4-.4-.6-.6,0,0,0,0,0,0,0,0,0,0,0,0,.1,0,1.4.2,1.5.6,0,0,0,.1,0,.2,0,.1-.2.2-.3.2-.2,0-.5,0-.6-.3ZM81.2,166.4c.4.4.8.7,1,.7,0,0,.1,0,.2-.1,0,0,0,0,0,0,0-.2-.7-.4-1.2-.5Z"/>
            <path class="cls-17" d="M81,166.4s0,0,0,0c0,0,0,0,0,0,0,0,.8-.9,1.3-.5h0c.1.1.1.2,0,.3-.1.3-1,.4-1.4.3h0ZM82.2,165.9c-.3-.2-.8.2-1,.4.4,0,1,0,1.1-.2,0,0,0,0,0-.1h0Z"/>
          </g>
          <path class="cls-11" d="M78.1,165l-1.3,2.3c-.1.2,0,.5.2.6.7.4,1.6,1,2,1.2,2.1.9,3.4.7,4.5.7.4,0,.7-.4.6-.8v-.2c0-.1-.2-.3-.4-.3-1.7-.5-2.7-2.4-2.7-2.4l-2.4-1.2c-.2,0-.4,0-.5.2Z"/>
          <g>
            <path class="cls-17" d="M100.5,167.8c-.3-.1-.5-.2-.8-.4,0,0,0,0,0,0,0,0,0,0,0,0,.1,0,1.4-.2,1.6,0,0,0,0,.1,0,.2,0,.1-.1.2-.2.3-.2,0-.5,0-.7,0ZM99.9,167.4c.5.3,1,.4,1.2.3,0,0,.1,0,.1-.2,0,0,0,0,0,0-.1-.2-.8-.1-1.3,0Z"/>
            <path class="cls-17" d="M99.7,167.5s0,0,0,0c0,0,0,0,0,0,0,0,.5-1.1,1.1-.9h0c.2,0,.2.2.2.3,0,.3-.9.6-1.2.7h0ZM100.7,166.6c-.4-.1-.7.4-.9.7.4,0,1-.4,1-.6,0,0,0,0,0-.1h0Z"/>
          </g>
          <path class="cls-11" d="M96.4,167.9c0,.5,0,1.2,0,2,0,.4.2,1,.6,1.1.5.2,1.4.1,2.4,0,1.3-.2,3.4-1.3,4.3-1.8.3-.2.5-.6.3-1,0,0,0-.1-.1-.2,0,0-.1-.1-.2-.1-1.2,0-1.3,0-2.4,0s-1.6-.8-1.6-.8c0,0-1.3.4-2.3.2-1-.2-.9.5-.9.5Z"/>
          <path class="cls-17" d="M86.5,95.6c-1.1.5-2.2,1-3.2,1.6-1,.6-2,1.3-2.7,2.2-.2.2-.3.5-.3.8,0,.2.1.3.2.5.9,1.4,2,2.5,3.3,3.5.3-2,1-3.9,2-5.6.5-.8,1.1-1.7,1.2-2.6l-.5-.3Z"/>
          <g>
            <path d="M100.8,91.6c0,0-.1,0-.2,0-.5-.2-.8-.8-.6-1.5.2-.7.8-1.1,1.3-1,.3,0,.5.3.6.6,0,.3,0,.6,0,.9-.2.6-.6,1-1.1,1ZM101,89.2c-.4,0-.8.4-.9.9-.2.6,0,1.2.5,1.3,0,0,.1,0,.2,0,.4,0,.8-.4.9-.9,0-.3,0-.6,0-.8,0-.3-.3-.4-.5-.5,0,0-.1,0-.2,0Z"/>
            <path class="cls-14" d="M93.9,89.6l1,2,1.3,2.7c-.2.2-.4.4-.6.7-.4.6-.7,1,.5,2,.3.2.4.5.3.9-.1.4-.5.7-1.9.3-1.3-.4-2.4-1.2-3.1-2.3-.4-.5-.2-.8.2-1.2,1.4-1.2,2-3.2,2.3-4.9Z"/>
            <path class="cls-14" d="M100.3,92.6c-.7,1.1-1.8,1.6-2.9,1.7-.4,0-.8,0-1.2-.1-.9-.2-1.7-.8-2.2-1.8-.8-1.7-.3-3.2.5-5.7.1-.5.4-1,.7-1.4,1.3-1.6,3.7-1.7,5.2-.4,2.1,1.8,1.2,5.7-.2,7.7Z"/>
            <path class="cls-19" d="M97.3,94.3c-.4,0-.8,0-1.2-.1h0s.4-.4.4-.4c0,0,0,.4.8.5Z"/>
            <g>
              <path class="cls-10" d="M96.2,83.4c-.2-.4-.6-.7-1-.6.3.2.6.5.7.9l.3-.2Z"/>
              <path class="cls-11" d="M104.1,87.6c-.7.7-2.4.4-2.4.4l-.7-.7c-.2-.1-.5-.3-.7.5l-.3.7s-.8,1.4-2.1,2.1c-.2,0-.7.4-.7.4-.9.6-2,.6-2.9.1h-.3c-.3-.3-.6-.6-.6-1,0-1.4-.2-4.9,1-6,1.1-1,1.6-.7,2-.8.2,0,1.3-.8,2.8-.3,2.8,1,2.7,2.7,3.3,2.6.5,0,.9-.4.9-.5,0,0-.7,1.1-.4,1.1.3,0,1.1-.6,1-.5,0,.2-.9,1.1-.4,1.3.5.2,1.2-.5,1.2-.5,0,0,0,.3-.6,1Z"/>
            </g>
            <rect x="100.2" y="87.2" width=".1" height="4.1" transform="translate(-29.4 124.2) rotate(-56.8)"/>
            <path class="cls-14" d="M97.2,89c0,.6,0,1.2.4,1.7.5.6,1.2.2,1.5-.5.2-.6,0-1.7-.6-2s-1.3.1-1.4.9Z"/>
          </g>
          <path class="cls-17" d="M86.5,95.6s-2.7,3.2-3.6,10.7c-.9,7.5-1.6,12.5-1.6,12.5l14.4,1s-.5-4.8,0-8.5c.5-3.7,4.2-12.5,3.4-13.9-.4-.7-3.5-2.1-6.5-2.3-2.9-.2-6.1.5-6.1.5Z"/>
          <path class="cls-17" d="M95.5,97.2c-.8.7-1.2,1.7-1.5,2.6-.1.4-.2.8-.2,1.2,0,.5.3,1.1.6,1.5.4.9.9,1.7,1.3,2.6,1.7,0,3.3-.4,4.8-1.1.2,0,.4-.2.5-.4.1-.3-.8-3.1-.9-4.2-.3-2.3-2.6-4.2-4.6-2.4Z"/>
          <path class="cls-17" d="M89.7,95.2l1.2-.9c.3-.2.6-.3,1-.3.8,0,2.5,0,3.9.6,1.3.5,1,1.6,1,1.6,0,0-2.4-1-7.1-.9Z"/>
          <path class="cls-17" d="M81.5,117.4c-.8.9-.8,3.6-.8,3.6,0,0,7.4.7,10.7.7,2.1,0,3.8-.3,3.8-.3l.2-1.6.5,1.5h.7c0-.1-1-3.2-1-3.2l-14-.7Z"/>
          <path class="cls-17" d="M85.2,162.1s-.8,1.4-.8,1.4l-4.6-1.8.4-1.4,5,1.8Z"/>
          <path class="cls-17" d="M101.4,162.3s-.3,1.6-.3,1.6h-4.9v-1.4c-.1,0,5.2-.1,5.2-.1Z"/>
        </g>
        <g>
          <rect class="cls-15" x="146.1" y="84.1" width="47.5" height="5.3" rx="2.6" ry="2.6"/>
          <path class="cls-18" d="M211.6,124.9s-.3.5-.4,1c0,.3-.3.9-.5,1.2-.1.3-.5,1.6-.6,1.9,0,.1.3,1,.3,1.3,0,.3-.2.8,0,.9s.5-.4.5-.4c0,0,0,.3.2.4.4.2.6,0,.6,0,0,0,.2.3.3.3.4,0,.6,0,.6,0,0,0,.2.2.5.2.4,0,.5-.3.5-.3,0,0,.5,0,.6-.1s.1-.5.2-.7c0-.2,0-2-.6-3.3-.6-1.3.2-2.6.2-2.6l-2.6.4Z"/>
          <path class="cls-6" d="M211,130.6s0-1.6.4-2,.5.2.5.2c0,0,0-.6.4-.7.5,0,.5.6.5.6,0,0,0-.4.6-.4.5,0,.4.7.4.7,0,0,.5-.6.8,0,.5.9,0,2,0,2,0,0-.1.2-.6.1,0,0-.3.6-1,.2,0,0-.7.4-1-.2,0,0-.8.4-.9-.6Z"/>
          <path class="cls-21" d="M206.1,101.5s2.8,9.3,3.7,12.7c.3,1.1,1,11.3,1.1,11.7.1.4,3.7,1,3.7,1,0,0-.4-12.8-.5-13.5s-3.9-15-5-15.5c-.8-.4-1.3,0-2.3.7-1.5,1.1-.7,2.9-.7,2.9Z"/>
          <path class="cls-20" d="M171.5,86.7s0,.4.2.5c0,0,.2.2.3.4,0,0,0,.1.1.1,0,.2.2.5.5.8.3.3,1.5,1.3,1.5,1.3l1-.9,1.1-.5s-.6-2.6-.8-2.9c0,0,0,0,0,0-.2-.2-.5-.3-.7-.5,0,0-.6-.4-.8-.4-.3,0-.4.2-.5.4,0,0-.5.2-.7.5,0,0-.5.1-.6.6,0,0-.5.2-.5.5Z"/>
          <path class="cls-12" d="M208.3,164.9s.3,1.8.3,2,2.8-.2,2.8-.2l.2-2.1s-3,0-3.3.2Z"/>
          <path class="cls-7" d="M208.6,166.7s-.9,1.1-1.7,1.5c-.9.5-2.2.6-2.7,1.1-.4.3-1.3,1.8,2.2,1.8s5.3.2,5.6-.4c.4-.6-.6-4.2-.6-4.2,0,0-.8.3-2.9.1Z"/>
          <path class="cls-12" d="M188.3,164.9s.3,1.8.3,2c0,.3,2.8-.2,2.8-.2l.2-2.1s-3,0-3.3.2Z"/>
          <path class="cls-7" d="M188.6,166.7s-.9,1.1-1.7,1.5c-.9.5-4,.8-4.5,1.3-.4.3-1,1.7,4,1.6,3.6,0,5.3.2,5.6-.4s-.6-4.2-.6-4.2c0,0-.8.3-2.9.1Z"/>
          <path class="cls-7" d="M206,119.6s2.6,4.2,2.4,7.9c-.2,3.8,1,7.9,1.3,11.8.4,4.4,2.2,14.8,2.3,17.1,0,2.3-.3,9.8-.3,9.8h-3.6c0,0-3-18.1-3.8-19.9s-4.7-15.1-4.8-16.6,6.4-10.2,6.4-10.2Z"/>
          <path class="cls-7" d="M192.2,120.1s-2,10.3-2.2,12.6c-.3,2.3-.4,11.2-.6,12.6s-1.2,18.8-1.6,21h4.6s3.5-12.7,3.5-18.7c0-6,2.7-13,4.5-17,1.8-4,5.8-4,6.9-11.4,0,0-13.7-1.6-15.1.8Z"/>
          <path class="cls-18" d="M201.6,84.5s-3.5-1.3-5.1,1.4c-1.6,2.7-1.5,8.1.3,8.7,1.8.7,4.4.3,5.4-1.4.9-1.7,1.7-4.1,1.7-5.7,0-1.6-1.3-2.5-2.2-3Z"/>
          <path class="cls-18" d="M197.2,94.7s.1,1,0,1.4c-.2.5,4.6.5,4.6.5,0,0,.4-2.5,1.1-4.7.7-2.2-5.6,2.8-5.6,2.8Z"/>
          <path class="cls-11" d="M202.8,91.9s-.3.5-1.7.3-3-2-3.6-2.2c-.6-.2-.6-.5-.6-.5l-.4.5h-.6s.5-1.6-.3-2.2c-.8-.7.9-5.2,5.2-3.7,0,0,3.3.9,3.2,2.8-.1,1.9-.6,4.1-1.3,5Z"/>
          <path class="cls-2" d="M196.8,96.1s0-.9.4-1,4.5-.5,5-.3v1s-1,.6-5.4.2Z"/>
          <path class="cls-18" d="M197,88.8c0-.3.9-1.2,1.2-.3.3,1-.5,2.3-.9,2.2-.4-.1-.5-1.1-.3-1.9Z"/>
          <path class="cls-21" d="M190,97.4c2.8-.4,6.7-1.4,6.7-1.4l5.4-.2s5,1.1,6.9,2c.2,0,.2,4.4.7,5.6l-1.6,3.4s-.9,6.8-1.1,9.8c0,1.4,1.9,12.9,1.9,12.9,0,0-2.2.6-5.8,1s-12.9-.1-12.9-.6c0-.4,1.8-16.2,1.9-17,.1-1.3-.4-7.9-.4-7.9-.9-.7-8.3-4.1-10.4-5.9-.5-.5-2.8-2.7-3.5-3.5-2.3-2.7-4.2-5.1-4.4-5.6-.3-.3,2.6-1.8,2.8-1.9.2,0,3.3,4,4.5,5.3.5.6,2.8,2.2,2.8,2.2,0,0,4.9,1.9,6.6,1.8Z"/>
          <path class="cls-11" d="M202.6,84.8s4.5.3.1,7.1v-7.1Z"/>
        </g>
      </g>
    </g>
  </g>
</svg>